<svg width="52" height="48" viewBox="0 0 52 48" fill="none" xmlns="http://www.w3.org/2000/svg">
<g clip-path="url(#clip0_754_165)">
<path d="M39.565 45.4141C39.1426 45.3333 38.7203 45.4949 38.298 45.6566C37.9601 45.8182 37.6223 45.899 37.2844 45.899C37.031 45.899 36.8621 45.899 36.6087 46.0606C36.3553 46.1414 36.1019 46.2222 35.764 46.2222C35.3417 46.2222 35.0038 46.303 34.5815 46.4646C34.2436 46.6263 33.9058 46.7071 33.5679 46.7879C33.399 46.8687 33.1456 46.8687 32.8922 46.8687C32.7232 46.8687 32.4698 46.8687 32.2165 46.8687C31.7097 46.7879 31.2029 46.9495 30.7805 47.1919C30.3582 47.3535 29.9359 47.5152 29.5135 47.6768C29.4291 47.7576 29.2602 47.7576 29.0912 47.7576C28.7534 47.8384 28.4155 47.9192 28.0776 48C27.9932 48 27.8242 48 27.6553 48C27.233 48 26.7262 48 26.3038 48C24.9524 48 23.6009 47.9192 22.2495 47.8384C21.8272 47.8384 21.4048 47.7576 21.1514 47.5152C20.9825 47.3535 20.7291 47.1111 20.5602 46.8687C20.3912 46.7071 20.3068 46.4646 20.0534 46.4646C19.8844 46.4646 19.6311 46.4646 19.4621 46.4646C18.9553 46.5455 18.533 46.4646 18.1107 46.2222C17.8573 46.0606 17.6039 45.899 17.3505 45.8182C17.1815 45.7374 16.9281 45.7374 16.7592 45.6566C16.5058 45.5758 16.2524 45.495 15.999 45.4141C15.8301 45.4141 15.7456 45.3333 15.5767 45.3333C15.2388 45.3333 14.9854 45.2525 14.6476 45.0909C14.4786 45.0101 14.3097 45.0101 14.1408 44.9293C13.8029 44.9293 13.5495 44.8485 13.2961 44.6869C13.0427 44.6061 12.7893 44.5253 12.5359 44.3636C12.2825 44.202 12.0291 44.1212 11.7757 43.9596C11.3534 43.798 11.0155 43.6364 10.5932 43.4747C10.1709 43.3131 9.74855 43.0707 9.32622 42.8283C8.98836 42.6667 8.6505 42.5051 8.31263 42.3434C8.05924 42.1818 7.8903 42.101 7.63691 41.9394C7.29904 41.697 7.04565 41.5354 6.70778 41.2929C6.45439 41.0505 6.11652 40.8081 5.86313 40.5657C5.94759 40.6465 5.77866 40.4848 5.69419 40.404C5.52526 40.2424 5.35633 40.0808 5.1874 40C4.68061 39.7576 4.34274 39.3535 4.00488 38.8687C3.92041 38.7071 3.75148 38.5455 3.58255 38.303C3.41362 38.1414 3.32915 37.899 3.16022 37.7374C2.99129 37.5758 2.82236 37.4141 2.73789 37.2525C2.56896 37.1717 2.48449 37.0101 2.40003 36.9293C2.14663 36.6061 1.9777 36.2828 1.7243 35.9596C1.47091 35.6364 1.30197 35.2323 1.04858 34.9091C0.879645 34.6667 0.710713 34.3434 0.541782 34.101C0.288384 33.697 0.119453 33.2929 0.0349869 32.8081C-0.0494789 32.4848 0.0349869 32.1616 0.119453 31.8384C0.119453 31.7576 0.119453 31.596 0.119453 31.5152C0.119453 31.2727 0.0349869 31.0303 0.0349869 30.7071C0.0349869 30.5455 0.119453 30.303 0.119453 30.1414C0.119453 30.0606 0.119453 29.9798 0.203918 29.8182C0.203918 29.495 0.288384 29.1717 0.288384 28.8485C0.288384 28.3636 0.37285 27.8788 0.37285 27.3939C0.37285 26.9091 0.37285 26.4242 0.37285 25.8586C0.37285 25.4545 0.37285 25.1313 0.37285 24.7273C0.37285 24.4849 0.457316 24.1616 0.457316 23.9192C0.457316 23.596 0.457316 23.2727 0.457316 22.9495C0.457316 22.5455 0.541782 22.1414 0.710713 21.8182C0.795179 21.6566 0.795179 21.495 0.795179 21.4141C0.795179 21.1717 0.879645 20.8485 0.879645 20.6061C0.879645 20.4444 0.879645 20.2828 0.879645 20.1212C0.795179 19.6364 0.879645 19.2323 1.13304 18.8283C1.21751 18.6667 1.21751 18.4242 1.30197 18.2626C1.30197 18.101 1.30197 18.0202 1.30197 17.8586C1.30197 17.5354 1.38644 17.2121 1.47091 16.8889C1.55537 16.7273 1.55537 16.4848 1.63984 16.2424C1.7243 16 1.80877 15.7576 1.89323 15.4343C1.9777 14.9495 2.2311 14.5455 2.40003 14.1414C2.48449 13.9798 2.48449 13.899 2.56896 13.7374C2.65343 13.4141 2.73789 13.1717 2.90682 12.9293C2.99129 12.7677 3.07576 12.6061 3.16022 12.5253C3.24469 12.2828 3.41362 12.0404 3.49808 11.8788C3.58255 11.6364 3.75148 11.4747 3.75148 11.2323C3.83595 10.7475 4.08934 10.4242 4.34274 10.101C4.51167 9.93939 4.68061 9.77778 4.84954 9.53535C5.10293 9.29293 5.1874 8.9697 5.27187 8.64646C5.4408 8.24242 5.60973 7.83838 5.94759 7.51515C6.28546 7.27273 6.53885 7.0303 6.87672 6.70707C6.87672 6.46465 6.96118 6.46465 7.04565 6.38384C7.29904 6.30303 7.55244 6.14141 7.80584 5.89899C8.05924 5.65657 8.31263 5.49495 8.56603 5.25253C8.6505 5.17172 8.81943 5.09091 8.90389 4.92929C9.07283 4.68687 9.32622 4.52525 9.66409 4.44444C9.83302 4.36364 9.91748 4.28283 10.0864 4.20202C10.3398 4.0404 10.6777 3.87879 10.9311 3.71717C11.1845 3.55556 11.5223 3.39394 11.7757 3.23232C12.0291 2.9899 12.367 2.82828 12.7049 2.74747C13.2961 2.50505 13.8874 2.34343 14.5631 2.10101C14.8165 2.0202 15.0699 2.0202 15.2388 1.93939C15.4922 1.85859 15.6612 1.77778 15.9146 1.69697C16.0835 1.61616 16.2524 1.61616 16.3369 1.61616C16.7592 1.53535 17.0971 1.37374 17.4349 1.21212C17.6883 1.13131 17.9417 0.969697 18.1951 0.808081C18.4485 0.646465 18.7019 0.646465 18.9553 0.565657C19.2087 0.484848 19.4621 0.40404 19.8 0.40404C20.1378 0.323232 20.3912 0.242424 20.7291 0.242424C21.1514 0.161616 21.6582 0.161616 22.0806 0C22.2495 0 22.4184 0 22.5874 0C22.9252 0 23.1786 0 23.5165 0.0808081C23.6854 0.0808081 23.7699 0.161616 23.9388 0.242424C24.1922 0.40404 24.4456 0.484848 24.699 0.484848C25.1213 0.484848 25.4592 0.565657 25.8815 0.565657C26.2194 0.565657 26.4728 0.565657 26.8106 0.565657C27.1485 0.565657 27.4864 0.646465 27.7398 0.646465C27.9932 0.646465 28.2466 0.646465 28.4155 0.646465C28.8378 0.646465 29.2601 0.727273 29.6825 0.727273C30.0203 0.727273 30.3582 0.808081 30.6116 1.05051C30.865 1.21212 31.0339 1.45455 31.2029 1.69697C31.4563 2.0202 31.6252 2.26263 32.0475 2.42424C32.2165 2.50505 32.4699 2.58586 32.7232 2.58586C33.1456 2.58586 33.6524 2.66667 33.9902 2.82828C34.1592 2.90909 34.3281 2.90909 34.497 2.90909C34.9194 2.90909 35.3417 2.90909 35.764 3.07071C36.0174 3.15152 36.3553 3.23232 36.6087 3.31313C37.031 3.39394 37.3689 3.55556 37.7067 3.71717C38.3825 3.9596 38.9737 4.12121 39.565 4.36364C40.0718 4.52525 40.5786 4.76768 41.0854 5.0101C41.3388 5.17172 41.5922 5.25253 41.93 5.25253C42.3523 5.25253 42.6902 5.41414 43.0281 5.57576C43.1125 5.65657 43.197 5.65657 43.3659 5.73737C43.6193 5.89899 43.8727 5.9798 44.1261 6.14141C44.3795 6.30303 44.5485 6.38384 44.8019 6.46465C45.0553 6.54545 45.2242 6.70707 45.3931 6.9495C45.4776 7.0303 45.4776 7.19192 45.562 7.35354C45.6465 7.59596 45.731 7.83838 45.8999 8.08081C46.1533 8.40404 46.3222 8.72727 46.5756 9.05051C46.7446 9.29293 46.9135 9.53535 46.998 9.77778C47.0824 9.93939 47.1669 10.1818 47.2514 10.4242C47.3358 10.7475 47.4203 10.9899 47.5892 11.2323C47.7582 11.4747 47.7582 11.7172 47.9271 11.9596C48.265 12.7677 48.6028 13.5758 49.1096 14.303C49.1941 14.3838 49.2785 14.5455 49.363 14.6263C49.5319 14.8687 49.6164 15.1111 49.6164 15.3535C49.6164 15.5152 49.7009 15.6768 49.7853 15.8384C50.0387 16.3232 50.2077 16.8081 50.3766 17.2929C50.4611 17.6162 50.63 17.9394 50.7145 18.2626C50.7989 18.5051 50.7989 18.7475 50.7989 18.9899C50.9679 19.4747 51.0523 20.0404 51.2213 20.5253C51.3057 20.7677 51.3902 21.0101 51.4747 21.3333C51.4747 21.4949 51.4747 21.6566 51.4747 21.7374C51.4747 22.1414 51.4747 22.4646 51.4747 22.8687C51.4747 23.1919 51.3902 23.4343 51.3902 23.6768C51.3902 23.9192 51.4747 24.1616 51.4747 24.404C51.4747 24.7273 51.4747 24.9697 51.4747 25.2929C51.4747 25.3737 51.4747 25.5354 51.4747 25.697C51.5591 26.1818 51.4747 26.6667 51.4747 27.1515C51.4747 27.3939 51.3057 27.6364 51.2213 27.9596C51.1368 28.1212 51.1368 28.2828 51.1368 28.4444C51.1368 28.8485 51.1368 29.2525 51.1368 29.6566C51.1368 29.9798 51.0523 30.303 50.9679 30.6263C50.7145 31.2727 50.5455 31.9192 50.5455 32.5657C50.5455 32.8081 50.4611 33.1313 50.3766 33.3737C50.2077 33.7778 50.0387 34.2626 49.8698 34.7475C49.7853 35.1515 49.6164 35.4747 49.4475 35.8788C49.2785 36.2828 49.0251 36.6061 48.7717 37.0101C48.6028 37.1717 48.6028 37.4141 48.5184 37.5758C48.5184 37.8182 48.4339 37.9798 48.3494 38.2222C48.1805 38.5455 48.0116 38.8687 47.9271 39.1919C47.8426 39.3535 47.7582 39.5152 47.6737 39.6768C47.5892 39.9192 47.4203 40.1616 47.3358 40.3232C47.1669 40.5657 47.0824 40.8081 46.9135 40.9697C46.7446 41.2121 46.5756 41.4545 46.4067 41.6162C46.1533 41.8586 45.8999 42.101 45.6465 42.3434C45.4776 42.5051 45.3087 42.6667 45.1397 42.8283C44.9708 43.0707 44.7174 43.2323 44.3795 43.3939C43.9572 43.6364 43.5349 43.8788 43.1125 44.202C42.6902 44.5253 42.2679 44.8485 41.8456 45.0101C41.4232 45.1717 41.0009 45.3333 40.4941 45.4141C39.9873 45.4141 39.7339 45.4141 39.565 45.4141ZM17.7728 13.9798C17.5194 13.9798 17.266 13.9798 16.9281 14.0606C16.5903 14.1414 16.4214 14.2222 16.168 14.3838C15.9146 14.4646 15.6612 14.5455 15.4922 14.7071C15.1544 14.8687 14.8165 15.1111 14.5631 15.2727C14.3942 15.3535 14.2252 15.4343 14.1408 15.5152C13.8874 15.6768 13.7184 15.8384 13.465 16.0808C13.2961 16.1616 13.2116 16.3232 13.0427 16.404C12.7893 16.5657 12.5359 16.8081 12.4515 17.1313C12.367 17.3737 12.2825 17.5354 12.1136 17.7778C12.0291 17.8586 11.9447 17.9394 11.8602 18.101C11.6913 18.3434 11.6068 18.5859 11.4379 18.9091C11.1845 19.3131 11.1845 19.6364 11.1 20.0404C11.1 20.2828 11.0155 20.4444 11.0155 20.6869C10.9311 21.0101 10.9311 21.2525 10.9311 21.495C10.9311 21.8182 10.9311 22.1414 10.9311 22.5455C10.9311 22.8687 10.9311 23.1919 10.9311 23.596C10.9311 23.6768 10.9311 23.8384 10.9311 23.9192C11.0155 24.1616 11.0155 24.3232 11.1 24.5657C11.1845 24.9697 11.3534 25.2929 11.5223 25.697C11.6068 25.9394 11.7757 26.101 11.8602 26.3434C12.0291 26.7475 12.1136 27.0707 12.1981 27.4747C12.367 27.8788 12.7049 28.202 12.9583 28.5253C13.1272 28.6869 13.2961 28.8485 13.465 29.0909C13.7184 29.4141 14.0563 29.7374 14.3097 30.0606C14.3097 30.0606 14.3942 30.1414 14.3942 30.2222C14.5631 30.5455 14.901 30.7879 15.2388 30.9495C15.4078 31.0303 15.6612 31.1919 15.8301 31.3535C16.0835 31.5152 16.2524 31.7576 16.5058 31.9192C16.8437 32.0808 17.0971 32.2424 17.3505 32.4848C17.5194 32.6465 17.7728 32.8081 17.9417 32.8889C18.1951 33.0505 18.4485 33.2121 18.7019 33.2929C18.8709 33.3737 19.0398 33.2929 19.1243 33.1313C19.1243 33.0505 19.1243 32.9697 19.1243 32.8889C19.1243 32.2424 19.1243 31.596 19.2932 30.9495C19.3777 30.6263 19.2932 30.303 19.2087 30.0606C19.1243 29.6566 19.1243 29.2525 19.2087 28.9293C19.2932 28.5253 19.2087 28.202 19.1243 27.8788C18.8709 27.3131 18.9553 26.7475 19.1243 26.1818C19.2087 26.0202 19.2087 25.7778 19.2087 25.5354C19.2087 25.2121 19.1243 24.9697 19.1243 24.7273C19.1243 24.4849 19.0398 24.1616 19.0398 23.9192C19.0398 23.596 19.0398 23.1919 19.0398 22.8687C19.0398 22.7879 19.0398 22.7879 19.0398 22.7071C19.0398 22.3838 19.0398 22.1414 19.1243 21.8182C19.1243 21.5758 19.2087 21.4141 19.2087 21.1717C19.2087 20.8485 19.2087 20.5253 19.1243 20.202C19.1243 19.798 19.0398 19.4747 19.0398 19.0707C19.0398 18.6667 19.1243 18.3434 19.1243 17.9394C19.1243 17.5354 19.2087 17.2121 19.3777 16.8081C19.5466 16.4848 19.6311 16.1616 19.5466 15.7576C19.5466 15.5152 19.5466 15.2727 19.5466 15.0303C19.5466 14.8687 19.6311 14.7071 19.7155 14.4646C19.8 14.2222 19.6311 14.0606 19.4621 14.0606C19.2087 13.9798 18.8709 13.9798 18.6175 14.0606C18.6175 13.9798 18.1951 14.0606 17.7728 13.9798ZM31.8786 32.1616C31.8786 32.5657 31.8786 32.9697 32.0475 33.3737C32.132 33.5354 32.2165 33.697 32.3854 33.7778C32.7232 33.8586 33.1456 33.8586 33.4834 33.697C33.9902 33.4545 34.497 33.2121 35.0038 32.9697C35.2572 32.8081 35.5951 32.6465 35.764 32.404C35.8485 32.2424 36.0174 32.0808 36.1019 31.9192C36.2708 31.6768 36.4397 31.3535 36.6087 31.1111C36.7776 30.8687 36.8621 30.6263 37.031 30.3838C37.1155 30.2222 37.1999 30.1414 37.1999 29.9798C37.3689 29.5758 37.5378 29.1717 37.7067 28.7677C37.7912 28.5253 37.8757 28.202 37.8757 27.9596C37.8757 27.798 37.8757 27.6364 37.8757 27.4747C37.8757 27.2323 37.9601 26.9899 38.0446 26.7475C38.2135 26.4242 38.298 26.0202 38.298 25.697C38.298 25.2929 38.298 24.9697 38.4669 24.6465C38.5514 24.404 38.5514 24.1616 38.3825 23.8384C38.298 23.596 38.1291 23.3535 38.0446 23.0303C38.0446 22.6263 37.8757 22.2222 37.6223 21.8182C37.4533 21.5758 37.3689 21.3333 37.1999 21.0909C36.9465 20.6869 36.7776 20.2828 36.5242 19.8788C36.3553 19.6364 36.1863 19.4747 36.1019 19.2323C35.8485 18.6667 35.4262 18.2626 34.9194 17.9394C34.497 17.6162 34.0747 17.2929 33.6524 17.0505C33.399 16.8889 33.1456 16.6465 32.8922 16.4848C32.6388 16.2424 32.2165 16.0808 31.8786 16C31.7097 16 31.5407 16.0808 31.5407 16.2424C31.5407 16.4848 31.6252 16.7273 31.6252 16.9697C31.6252 17.2929 31.7097 17.6162 31.7097 17.8586C31.7097 18.1818 31.7097 18.5051 31.7941 18.8283C31.7941 19.0707 31.8786 19.2323 31.8786 19.4747C31.8786 19.8788 31.9631 20.2828 32.132 20.6061C32.3009 20.9293 32.3009 21.3333 32.2165 21.7374C32.132 22.0606 32.0475 22.3838 32.0475 22.7071C32.0475 23.1111 32.0475 23.5152 32.0475 24C32.0475 24.0808 32.0475 24.1616 32.0475 24.3232C32.0475 24.5657 32.132 24.8081 32.0475 25.1313C31.9631 25.4545 31.9631 25.697 31.9631 26.0202C31.9631 26.2626 31.9631 26.4242 31.9631 26.6667C31.9631 26.9899 31.9631 27.3131 31.9631 27.5556C31.9631 27.798 32.0475 27.9596 32.0475 28.202C32.0475 28.3636 32.0475 28.5253 32.0475 28.7677C32.0475 29.0101 32.0475 29.2525 32.0475 29.4141C32.0475 29.899 32.0475 30.4646 31.9631 30.9495C31.9631 31.1919 31.9631 31.3535 31.9631 31.596C31.8786 31.7576 31.8786 32 31.8786 32.1616Z" fill="white"/>
</g>
<defs>
<clipPath id="clip0_754_165">
<rect width="52" height="48" fill="white"/>
</clipPath>
</defs>
</svg>
